<?xml version="1.0" standalone="no"?>
<!DOCTYPE svg PUBLIC "-//W3C//DTD SVG 20010904//EN"
 "http://www.w3.org/TR/2001/REC-SVG-20010904/DTD/svg10.dtd">
<svg version="1.0" xmlns="http://www.w3.org/2000/svg"
 width="1000.000000pt" height="1000.000000pt" viewBox="0 0 1000.000000 1000.000000"
 preserveAspectRatio="xMidYMid meet">
<metadata>
Created by potrace 1.11, written by Peter Selinger 2001-2013
</metadata>
<g transform="translate(0.000000,1000.000000) scale(0.100000,-0.100000)"
fill="#000000" stroke="none">
<path d="M0 5000 l0 -5000 5000 0 5000 0 0 5000 0 5000 -5000 0 -5000 0 0
-5000z m4757 2313 c399 -222 770 -566 1013 -938 70 -108 183 -340 219 -451 47
-147 63 -251 63 -419 0 -195 -41 -467 -103 -682 -20 -72 -24 -113 -11 -113 15
0 198 195 244 260 89 125 163 302 188 445 5 33 14 107 20 163 14 153 46 203
113 179 56 -19 187 -223 257 -402 70 -175 108 -327 151 -605 30 -190 32 -223
32 -450 0 -251 -9 -352 -55 -605 -24 -134 -40 -193 -85 -304 -196 -489 -763
-912 -1408 -1051 -306 -66 -517 -66 -819 0 -723 159 -1305 747 -1481 1499 -36
151 -47 266 -47 481 0 184 4 237 26 367 64 382 185 639 407 861 101 102 216
197 424 352 252 186 356 273 460 381 132 137 205 255 251 404 26 87 26 345 0
471 -21 98 -17 133 16 164 29 27 68 25 125 -7z m-1013 -625 c30 -28 97 -160
122 -243 11 -37 18 -94 18 -150 1 -79 -2 -96 -26 -140 -14 -28 -41 -62 -60
-75 -19 -14 -61 -48 -94 -77 -32 -28 -140 -121 -239 -206 -99 -85 -187 -162
-194 -171 -13 -15 -41 -22 -41 -10 0 3 43 94 96 202 184 375 242 524 313 798
12 47 46 94 66 94 8 0 25 -10 39 -22z"/>
<path d="M4263 5534 c-381 -199 -662 -619 -724 -1082 -14 -105 -6 -306 16
-417 61 -308 224 -605 464 -846 239 -240 530 -397 819 -445 213 -35 528 14
749 116 24 11 46 20 49 20 19 0 222 111 299 164 181 123 286 256 330 416 39
146 16 208 -73 196 -23 -3 -100 -29 -170 -58 -152 -63 -221 -69 -307 -28 -168
82 -335 365 -485 823 -54 167 -163 189 -235 47 -110 -216 -132 -497 -69 -862
5 -29 3 -38 -7 -38 -36 0 -209 127 -304 224 -214 215 -329 459 -381 804 -18
121 -18 213 1 338 27 185 70 318 155 487 95 187 52 235 -127 141z"/>
</g>
</svg>
